<?xml version="1.0" encoding="iso-8859-1"?>
<!-- Uploaded to: SVG Repo, www.svgrepo.com, Generator: SVG Repo Mixer Tools -->
<!DOCTYPE svg PUBLIC "-//W3C//DTD SVG 1.1//EN" "http://www.w3.org/Graphics/SVG/1.1/DTD/svg11.dtd">
<svg version="1.1" id="Capa_1" xmlns="http://www.w3.org/2000/svg" xmlns:xlink="http://www.w3.org/1999/xlink" 
	 width="800px" height="800px" viewBox="0 0 586.76 586.76"
	 xml:space="preserve">
<g>
	<g>
		<path d="M533.517,337.581l-65.344-17.342c-8.216-2.217-18.341,2.234-22.088,9.848l-11.396,22.744
			c-5.267,10.663-5.355,10.663-5.355,12.247c0,4.8,1.348,5.166,14.57,8.719l39.396,10.562c2.961,0.792,5.639,4.303,5.639,7.358
			v49.586c0,7.707,2.991,14.611,8.44,20.061c5.462,5.456,12.708,8.11,20.404,8.11h0.012c15.988,0.012,31.67-12.235,31.67-28.159
			v-84.678C549.464,348.149,541.709,339.774,533.517,337.581z M484.848,378.519l-39.419-10.562
			c-5.592-1.501-10.131-2.79-10.131-2.879c0-0.095,2.08-4.38,4.646-9.575l11.225-22.732c2.252-4.563,7.631-7.418,12.696-7.034
			c-4.941-0.112-10.208,2.666-12.359,7.034l-11.396,22.732c-2.564,5.195-4.729,9.48-4.729,9.575c0,0.089,4.498,1.378,10.09,2.879
			l39.401,10.562c5.598,1.489,10.119,7.406,10.119,13.198C494.991,385.925,490.445,380.008,484.848,378.519z M537.359,441.315
			c0,9.244-8.925,16.775-18.246,16.775c-4.463,0-9.339-1.75-12.502-4.918c-3.174-3.181-5.567-7.389-5.567-11.857v-49.592
			c0-8.476-6.431-16.846-14.63-19.044l-39.412-10.568c-1.1-0.296-2.152-0.579-3.145-0.852c0.473-0.957,0.98-1.997,1.513-3.073
			l11.219-22.732c1.247-2.519,5.019-4.25,7.778-3.523l66,17.342c2.967,0.793,6.992,4.304,6.992,7.359V441.315z"/>
		<path d="M568.899,157.882l-58.658-39.002c-4.232-2.817-10.87-8.177-14.493-11.712l-2.968-2.893
			c-3.517-3.434-6.821-8.027-7.447-9.383l-2.565-5.846c-4.38-9.975-11.709-11.053-14.658-11.053
			c-5.586,0-12.431,3.573-14.907,13.595l-5.427,22.002c-7.086-2.429-15.704-4.335-25.374-4.335c-12.644,0-24.974,3.251-36.642,9.667
			c-1.441,0.792-2.506,2.148-2.932,3.741c-0.691,2.554-17.555,62.631-75.823,62.637c-0.006,0-0.006,0-0.006,0
			c-3.771,0-7.689-0.254-11.662-0.763c-11.665-1.483-24.325-2.24-37.63-2.24c-54.001,0-117.743,12.507-138.398,40.45
			c-3.118,4.215-5.127,8.722-6.114,13.403c-15.584,5.562-35.905,15.244-48.276,30.739c-7.903,9.892-17.218,19.503-31.765,22.836
			c-5.905,1.356-10.016,5.884-10.482,11.529c-0.464,5.645,2.834,10.77,8.402,13.063c2.929,1.211,5.896,2.127,8.922,2.736
			c-0.449,0.372-1.09,0.52-2.482,0.52c-1.084,0-2.397-0.124-4.129-0.396c-0.815-0.124-1.578-0.178-2.287-0.178
			c-4.921,0-9.271,2.471-11.639,6.62c-2.379,4.174-2.264,9.25,0.296,13.571c2.559,4.327,5.701,7.447,9.425,9.776
			c-2.258-1.336-4.909-3.186-7.977-5.728c-3.301-2.73-6.567-3.298-8.725-3.298c-4.061,0-7.873,1.968-10.196,5.284
			c-2.441,3.47-2.95,7.926-1.398,12.241c7.285,20.167,29.415,34.791,52.626,34.791c11.059,0,21.255-3.299,29.477-9.541
			c6.088-4.621,11.31-12.033,14.331-20.35c3.366-9.239,6.339-18.661,9.206-27.775c2.337-7.4,4.752-15.049,7.323-22.408
			c1.957-5.633,4.699-11.721,8.583-19.038l1.037,60.846c0.157,8.636,4.103,19.588,9.375,26.061l16.789,20.705
			c0.461,0.567,0.901,1.111,1.333,1.632c-0.369,0.608-0.745,1.241-1.138,1.885l-25.41,42.221c-4.75,7.838-6.257,17.088-4.218,26.008
			c2.069,9.055,7.521,16.645,15.356,21.385c5.222,3.168,11.245,4.848,17.401,4.848c12.072,0,23.495-6.473,29.808-16.894
			l43.506-71.81l27.612,19.476c3.656,2.577,7.947,8.595,9.2,12.868l13.902,47.594c3.564,12.24,14.963,20.799,27.704,20.799
			c0,0,0,0,0.006,0c2.73,0,5.455-0.39,8.092-1.158c5.166-1.513,9.504-4.409,12.938-8.074c4.557-0.171,8.984-1.193,13.163-3.108
			l77.012-35.24c9.936-4.54,16.585-16.172,15.492-27.036l-6.254-61.768c-0.366-3.522,0.827-10.084,2.394-13.258l70.279-142.207
			c0.236-0.346,1.253-0.907,1.886-0.907l44.591,8.485c2.175,0.404,4.368,0.605,6.531,0.605c12.968,0,24.938-7.01,31.256-18.285
			C591.797,189.797,585.904,167.898,568.899,157.882z M129.035,229.943c17.25-23.327,77.789-35.541,128.666-35.541
			c12.796,0,24.943,0.721,36.106,2.146c4.475,0.567,8.907,0.857,13.187,0.857h0.006c60.16-0.006,82.379-56.063,86.699-68.988
			c9.227-4.678,18.867-7.051,28.697-7.051c7.436,0,14.168,1.369,19.859,3.183c-0.455,0.605-0.91,1.247-1.341,1.69l-85.477,90.364
			c-2.405,2.512-6.998,4.838-8.818,5.075c-4.971-0.316-36.883-2.217-76.769-2.217c-55.958,0-101.502,3.541-135.362,10.533
			c-0.919,0.192-3.207,0.683-6.446,1.536C128.381,231.004,128.653,230.469,129.035,229.943z M223.601,398.757l-0.092-0.065
			c0.236-1.565,0.266-3.162,0.115-4.746C223.763,395.465,223.757,397.25,223.601,398.757z M223.075,391.37
			c0.228,0.496,0.399,1.276,0.508,2.233C223.498,392.846,223.249,392.114,223.075,391.37z M222.948,390.801
			c-0.154-0.591-0.195-1.205-0.402-1.773l6.635,0.013c0.133,0.626,0.219,1.265,0.307,1.909c-0.088-0.137-0.192-0.148-0.313-0.148
			H222.948z M224.393,378.696h128.124l3.76,32.723c0.006,0.603-0.81,1.288-1.407,1.584c-10.178,4.664-26.155,11.786-36.097,16.207
			l-7.3-22.579c-2.399-7.459-9.918-14.658-17.476-16.745l-13.999-3.871c-6.106-1.679-15.853-2.128-22.201-2.134l-30.697,0.868
			h-0.263C226.143,378.696,225.312,379.878,224.393,378.696z M304.688,496.675L304.688,496.675c-7.406,0-14.018-4.965-16.089-12.081
			l-13.902-47.605c-2.015-6.893-7.958-15.215-13.837-19.358l-31.593-21.882c0,0.077-0.594,0.16-0.594,0.236c0-0.088,0-0.171,0-0.254
			l0.594,0.018c0.012-0.219-0.31-0.443-0.304-0.656l28.259,0.013c5.249,0.012,14.23,1.193,19.272,2.589l14.139,3.865
			c3.65,1.005,8.098,5.201,9.256,8.801l7.802,24.027c-7.436,4.008-13.172,10.232-16.142,18.205
			c-3.25,8.725-2.899,18.123,0.972,26.593c3.44,7.53,9.413,13.388,16.606,16.876C307.672,496.451,306.183,496.675,304.688,496.675z
			 M571.494,200.91c-4.345,7.755-12.437,12.099-20.693,12.099c-1.425,0-2.855-0.127-4.268-0.393l-44.645-8.491
			c-0.727-0.142-1.466-0.207-2.21-0.207c-5.119,0-10.492,3.118-12.732,7.646l-70.284,142.201c-2.565,5.202-4.168,14.08-3.588,19.849
			l6.253,61.768c0.585,5.757-3.209,12.39-8.476,14.801l-77.012,35.229c-0.307,0.136-0.633,0.188-0.945,0.313
			c-2.158,0.868-4.362,1.354-6.579,1.536c-0.632,0.054-1.259,0.195-1.892,0.195c-1.536,0-3.044-0.207-4.539-0.509
			c-6.945-1.418-13.188-5.976-16.344-12.896c-4.681-10.232-1.104-22.071,7.892-28.207c1.063-0.727,2.163-1.418,3.381-1.974
			c0,0,0.78-0.354,2.039-0.923c1.33-0.603,3.204-1.453,5.544-2.518c9.795-4.457,26.853-12.205,37.516-17.082
			c5.267-2.412,9.026-8.83,8.399-14.588l-3.89-33.893c-0.632-5.757-5.834-8.274-11.626-8.274H202.603
			c-5.793,0-7.226,1.229-3.213,5.402l13.589,12.755l1.138,1.064c1.064,1.111,1.889,2.424,2.486,3.842
			c0.653,1.537,1.005,3.191,1.096,4.871c0.121,2.27-0.307,4.539-1.294,6.561c-0.15,0.308-0.281,0.639-0.455,0.934l-43.547,71.722
			c-4.315,7.128-11.857,10.976-19.461,10.976c-3.83,0-7.678-1.04-11.136-3.139c-10.332-6.253-13.509-20.107-7.028-30.807
			l25.404-42.227c2.991-4.965,5.423-9.055,5.423-9.126s-2.923-3.782-6.584-8.269l-16.811-20.729
			c-3.656-4.492-6.549-12.826-6.655-18.619l-1.224-71.754c0,0-0.659-10.001-0.969-15.447c-8.535,6.52-15.386,9.262-20.62,18.971
			c-3.937,7.291-7.622,14.827-10.338,22.629c-5.787,16.58-10.471,33.55-16.482,50.034c-2.004,5.521-5.677,11.361-10.273,14.849
			c-6.413,4.87-14.215,7.069-22.157,7.069c-17.33,0-35.355-10.498-41.236-26.794c-0.31-0.856-0.195-1.312,0.204-1.312
			c0.236,0,0.582,0.159,0.999,0.514c9.637,7.991,18.093,11.976,25.215,11.976c8.588,0,15.241-5.793,19.665-17.343
			c0.52-1.348-0.284-2.624-1.711-2.837c-16.943-2.482-22.591-4.764-26.468-11.337c-0.662-1.111-0.201-1.909,0.925-1.909
			c0.133,0,0.277,0.012,0.428,0.036c2.037,0.312,4.046,0.537,5.982,0.537c5.101,0,9.756-1.524,13.308-6.856
			c3.676-5.521,7.235-11.112,10.636-16.391c0.665-1.04,0.393-1.731-0.6-1.731c-0.157,0-0.352,0.018-0.549,0.059
			c-3.337,0.65-6.836,1.153-10.51,1.153c-4.424,0-9.12-0.728-14.115-2.79c-1.342-0.55-1.227-1.277,0.177-1.602
			c17.339-3.973,28.762-14.857,38.518-27.078c9.54-11.949,25.387-20.124,38.751-25.304c2.001-0.777,3.916-1.472,5.778-2.113
			c2.87-0.993,5.521-1.841,7.876-2.529c5.908-1.738,9.901-2.592,10.161-2.646c39.717-8.195,91.014-10.278,132.916-10.278
			c43.34,0,76.636,2.228,76.636,2.228c5.792,0,13.736-4.696,17.75-8.881l85.41-90.305c1.359-1.416,2.749-3.274,4.061-5.314
			c1.076-1.676,2.099-3.466,2.985-5.284c0.951-1.941,1.726-3.865,2.287-5.65c0.16-0.508,0.325-1.025,0.443-1.501l5.526-22.378
			c0.716-2.917,1.88-4.395,3.15-4.395c1.177,0,2.459,1.265,3.576,3.815l2.571,5.852c1.419,3.233,5.935,9.132,10.078,13.175
			l2.961,2.887c4.149,4.043,11.42,9.921,16.249,13.131l58.954,39.2C573.905,174.695,578.054,189.44,571.494,200.91z"/>
	</g>
</g>
</svg>